<?xml version="1.0" encoding="UTF-8" standalone="no"?>
<!DOCTYPE svg PUBLIC "-//W3C//DTD SVG 1.1//EN" "http://www.w3.org/Graphics/SVG/1.1/DTD/svg11.dtd">
<svg xmlns="http://www.w3.org/2000/svg" version="1.1" viewBox="0.00 0.00 164.00 61.00">
<g stroke-width="2.00" fill="none" stroke-linecap="butt">
<path stroke="#808080" vector-effect="non-scaling-stroke" d="
  M 14.23 17.37
  Q 14.36 31.02 14.10 41.40
  Q 14.05 43.45 13.35 45.54
  Q 12.59 47.85 14.59 46.48
  Q 18.31 43.93 18.39 38.73
  Q 18.58 27.98 18.48 16.10
  Q 18.47 15.39 17.91 14.96
  C 13.29 11.40 7.99 19.65 6.85 23.15
  C 5.68 26.72 7.24 30.62 11.09 31.44
  A 0.41 0.41 0.0 0 0 11.53 30.82
  C 9.11 26.82 9.79 20.70 13.51 17.07
  Q 14.22 16.37 14.23 17.37"
/>
<path stroke="#808080" vector-effect="non-scaling-stroke" d="
  M 97.96 37.44
  L 98.03 25.63
  Q 98.04 24.95 97.38 24.79
  L 94.86 24.16
  A 0.48 0.48 0.0 0 0 94.28 24.74
  Q 94.32 24.93 94.27 25.11
  Q 94.01 25.95 93.42 25.29
  Q 91.57 23.16 88.76 24.01
  C 84.17 25.40 83.40 33.41 83.83 37.22
  C 84.01 38.74 83.29 40.77 81.57 41.01
  A 1.10 1.09 -17.1 0 1 80.45 40.42
  Q 79.76 39.04 79.74 37.43
  Q 79.66 31.43 79.83 25.71
  Q 79.85 25.09 79.26 24.89
  L 77.27 24.23
  A 0.95 0.95 0.0 0 0 76.08 24.79
  L 75.93 25.21
  Q 75.68 25.87 75.19 25.35
  Q 72.40 22.36 69.06 24.83
  C 66.35 26.84 65.60 30.80 65.49 34.11
  C 65.41 36.40 64.44 38.54 62.82 40.09
  A 1.22 1.21 -37.3 0 1 60.94 39.84
  Q 60.33 38.81 60.25 37.62
  Q 59.86 31.67 60.42 23.80
  Q 60.46 23.25 61.01 23.25
  L 65.27 23.25
  Q 66.05 23.25 66.20 22.48
  L 66.39 21.52
  Q 66.53 20.76 65.77 20.68
  L 60.92 20.18
  Q 60.44 20.13 60.47 19.66
  L 60.66 16.16
  Q 60.73 14.93 59.57 14.55
  L 57.79 13.96
  Q 56.38 13.50 56.29 14.98
  L 55.99 19.64
  Q 55.95 20.22 55.36 20.18
  L 52.53 19.95
  A 1.15 1.15 0.0 0 0 51.33 20.78
  L 51.00 21.97
  Q 50.73 22.93 51.73 23.00
  L 55.27 23.24
  Q 55.82 23.28 55.81 23.83
  C 55.76 28.65 56.76 33.57 53.38 37.64
  Q 52.50 38.71 52.58 37.32
  C 52.80 33.82 49.07 31.84 46.63 29.98
  Q 46.14 29.61 46.57 29.17
  C 47.67 28.02 49.01 25.72 47.83 24.26
  Q 47.21 23.49 46.12 23.72
  Q 42.37 24.48 42.03 28.10
  A 2.10 2.10 0.0 0 0 42.29 29.32
  L 42.83 30.30
  Q 43.10 30.81 42.83 31.31
  Q 40.78 35.18 38.39 38.70
  Q 37.99 39.29 37.38 39.43
  Q 36.62 39.61 36.57 38.83
  Q 36.22 33.61 36.66 27.83
  C 36.81 25.99 35.54 24.69 33.85 24.17
  C 29.93 22.99 27.30 29.94 26.48 32.61
  Q 25.94 34.38 25.95 32.53
  L 25.99 25.76
  Q 26.00 24.74 25.02 24.49
  L 23.48 24.08
  Q 22.26 23.77 22.25 25.03
  L 22.18 41.27
  A 2.01 2.00 6.2 0 0 23.77 43.24
  L 24.61 43.42
  Q 25.97 43.71 26.19 42.34
  C 26.96 37.56 28.70 31.36 32.02 27.73
  Q 32.65 27.04 32.60 27.97
  C 32.40 31.50 31.39 39.31 33.31 42.22
  C 36.63 47.28 42.94 34.89 44.24 32.83
  Q 44.54 32.36 44.99 32.69
  C 46.88 34.03 50.14 37.49 48.23 39.86
  Q 47.05 41.33 44.44 39.34
  Q 43.07 38.30 42.25 39.80
  L 41.78 40.68
  Q 41.05 42.02 42.48 42.53
  Q 51.67 45.83 55.42 37.04
  Q 55.80 36.17 55.93 37.11
  C 56.30 39.79 57.79 44.03 61.26 43.31
  Q 63.99 42.75 65.19 39.51
  Q 65.58 38.46 66.03 39.49
  C 68.25 44.64 72.97 44.45 76.15 40.27
  Q 76.52 39.80 76.70 40.37
  C 77.86 44.06 82.39 44.53 84.21 40.98
  Q 84.58 40.25 85.05 40.92
  C 87.46 44.33 90.91 44.16 93.77 40.98
  A 0.34 0.34 0.0 0 1 94.36 41.25
  L 94.23 42.28
  A 0.59 0.58 -17.8 0 1 94.05 42.62
  Q 90.70 45.58 87.91 48.65
  C 84.23 52.71 86.74 58.86 92.58 57.31
  C 98.63 55.69 98.25 46.77 97.97 42.06
  Q 97.93 41.43 98.34 40.96
  Q 102.81 35.78 104.93 29.54
  Q 105.26 28.56 106.29 28.53
  L 107.79 28.49
  Q 108.68 28.47 108.44 29.32
  Q 107.00 34.35 108.00 38.80
  C 108.94 43.03 113.63 45.65 116.45 41.01
  Q 116.72 40.57 117.04 40.98
  C 120.04 44.83 124.00 43.77 126.28 40.17
  Q 126.69 39.52 126.96 40.25
  C 127.98 42.99 130.51 44.29 132.89 42.69
  C 133.48 42.30 133.83 41.65 134.26 41.11
  Q 134.68 40.57 134.73 41.25
  L 134.83 42.55
  A 0.67 0.66 9.6 0 0 135.23 43.11
  Q 136.89 43.80 138.69 43.20
  Q 139.27 43.01 139.28 42.40
  C 139.36 38.05 139.75 33.70 141.79 29.86
  Q 142.68 28.19 142.64 30.08
  Q 142.52 35.37 143.68 39.86
  Q 144.19 41.80 146.38 42.06
  A 1.20 1.19 5.2 0 0 147.72 40.95
  Q 148.07 35.17 150.19 29.70
  Q 150.73 28.30 150.75 29.80
  C 150.81 33.83 150.38 38.00 152.35 41.51
  C 153.62 43.76 156.83 44.40 158.48 42.11
  Q 160.11 39.84 159.99 36.99
  Q 159.98 36.59 159.63 36.40
  Q 159.37 36.27 159.06 36.41
  A 0.64 0.62 85.8 0 0 158.73 36.80
  L 157.79 39.97
  A 1.18 1.17 -54.5 0 1 155.71 40.32
  C 153.71 37.54 154.43 30.04 154.62 26.78
  A 1.42 1.41 -65.4 0 0 154.22 25.70
  Q 152.95 24.41 151.07 24.01
  Q 150.02 23.80 149.60 24.77
  Q 147.75 29.04 146.98 32.76
  Q 146.35 35.89 146.16 32.71
  Q 145.99 29.74 145.99 27.04
  C 146.00 24.56 142.19 22.46 140.92 25.57
  Q 139.94 27.97 139.09 30.55
  Q 138.52 32.30 138.52 30.46
  L 138.54 25.37
  Q 138.54 24.67 137.86 24.51
  L 135.50 23.97
  Q 134.78 23.80 134.75 24.54
  Q 134.52 30.28 134.48 35.82
  Q 134.46 38.78 132.34 40.73
  A 1.10 1.09 49.1 0 1 130.74 40.61
  Q 130.07 39.77 130.00 38.68
  Q 129.66 32.67 130.08 26.01
  A 1.17 1.16 -79.6 0 0 129.26 24.82
  L 127.50 24.28
  Q 126.80 24.06 126.31 24.61
  Q 126.17 24.75 126.13 24.96
  Q 125.92 26.00 125.21 25.21
  Q 123.06 22.83 120.06 24.27
  C 115.95 26.25 115.30 33.58 115.89 37.41
  Q 116.21 39.49 114.46 40.67
  A 1.33 1.32 -32.2 0 1 112.58 40.25
  C 110.68 37.03 111.69 31.76 112.68 28.19
  Q 113.19 26.33 111.44 25.72
  C 110.13 25.26 108.10 26.02 106.73 26.20
  Q 105.95 26.31 106.02 25.53
  C 106.45 20.86 98.81 24.16 102.19 28.29
  Q 102.53 28.70 102.38 29.22
  Q 101.11 33.73 98.51 37.61
  Q 97.96 38.43 97.96 37.44"
/>
<path stroke="#808080" vector-effect="non-scaling-stroke" d="
  M 72.1105 41.0206
  A 7.23 3.16 94.2 0 0 75.7915 34.0414
  A 7.23 3.16 94.2 0 0 73.1695 26.5994
  A 7.23 3.16 94.2 0 0 69.4885 33.5786
  A 7.23 3.16 94.2 0 0 72.1105 41.0206"
/>
<path stroke="#808080" vector-effect="non-scaling-stroke" d="
  M 90.2531 41.0291
  A 7.22 3.14 95.3 0 0 94.0466 34.1300
  A 7.22 3.14 95.3 0 0 91.5869 26.6509
  A 7.22 3.14 95.3 0 0 87.7934 33.5500
  A 7.22 3.14 95.3 0 0 90.2531 41.0291"
/>
<path stroke="#808080" vector-effect="non-scaling-stroke" d="
  M 122.2905 41.0306
  A 7.23 3.15 94.2 0 0 125.9615 34.0507
  A 7.23 3.15 94.2 0 0 123.3495 26.6094
  A 7.23 3.15 94.2 0 0 119.6785 33.5893
  A 7.23 3.15 94.2 0 0 122.2905 41.0306"
/>
<path stroke="#808080" vector-effect="non-scaling-stroke" d="
  M 93.99 45.76
  C 91.99 47.67 87.58 52.29 89.70 55.14
  A 1.28 1.27 76.7 0 0 90.49 55.63
  C 94.86 56.39 94.64 48.57 94.50 45.97
  Q 94.46 45.31 93.99 45.76"
/>
</g>
<path fill="#ffffff" d="
  M 0.00 0.00
  L 164.00 0.00
  L 164.00 61.00
  L 0.00 61.00
  L 0.00 0.00
  Z
  M 14.23 17.37
  Q 14.36 31.02 14.10 41.40
  Q 14.05 43.45 13.35 45.54
  Q 12.59 47.85 14.59 46.48
  Q 18.31 43.93 18.39 38.73
  Q 18.58 27.98 18.48 16.10
  Q 18.47 15.39 17.91 14.96
  C 13.29 11.40 7.99 19.65 6.85 23.15
  C 5.68 26.72 7.24 30.62 11.09 31.44
  A 0.41 0.41 0.0 0 0 11.53 30.82
  C 9.11 26.82 9.79 20.70 13.51 17.07
  Q 14.22 16.37 14.23 17.37
  Z
  M 97.96 37.44
  L 98.03 25.63
  Q 98.04 24.95 97.38 24.79
  L 94.86 24.16
  A 0.48 0.48 0.0 0 0 94.28 24.74
  Q 94.32 24.93 94.27 25.11
  Q 94.01 25.95 93.42 25.29
  Q 91.57 23.16 88.76 24.01
  C 84.17 25.40 83.40 33.41 83.83 37.22
  C 84.01 38.74 83.29 40.77 81.57 41.01
  A 1.10 1.09 -17.1 0 1 80.45 40.42
  Q 79.76 39.04 79.74 37.43
  Q 79.66 31.43 79.83 25.71
  Q 79.85 25.09 79.26 24.89
  L 77.27 24.23
  A 0.95 0.95 0.0 0 0 76.08 24.79
  L 75.93 25.21
  Q 75.68 25.87 75.19 25.35
  Q 72.40 22.36 69.06 24.83
  C 66.35 26.84 65.60 30.80 65.49 34.11
  C 65.41 36.40 64.44 38.54 62.82 40.09
  A 1.22 1.21 -37.3 0 1 60.94 39.84
  Q 60.33 38.81 60.25 37.62
  Q 59.86 31.67 60.42 23.80
  Q 60.46 23.25 61.01 23.25
  L 65.27 23.25
  Q 66.05 23.25 66.20 22.48
  L 66.39 21.52
  Q 66.53 20.76 65.77 20.68
  L 60.92 20.18
  Q 60.44 20.13 60.47 19.66
  L 60.66 16.16
  Q 60.73 14.93 59.57 14.55
  L 57.79 13.96
  Q 56.38 13.50 56.29 14.98
  L 55.99 19.64
  Q 55.95 20.22 55.36 20.18
  L 52.53 19.95
  A 1.15 1.15 0.0 0 0 51.33 20.78
  L 51.00 21.97
  Q 50.73 22.93 51.73 23.00
  L 55.27 23.24
  Q 55.82 23.28 55.81 23.83
  C 55.76 28.65 56.76 33.57 53.38 37.64
  Q 52.50 38.71 52.58 37.32
  C 52.80 33.82 49.07 31.84 46.63 29.98
  Q 46.14 29.61 46.57 29.17
  C 47.67 28.02 49.01 25.72 47.83 24.26
  Q 47.21 23.49 46.12 23.72
  Q 42.37 24.48 42.03 28.10
  A 2.10 2.10 0.0 0 0 42.29 29.32
  L 42.83 30.30
  Q 43.10 30.81 42.83 31.31
  Q 40.78 35.18 38.39 38.70
  Q 37.99 39.29 37.38 39.43
  Q 36.62 39.61 36.57 38.83
  Q 36.22 33.61 36.66 27.83
  C 36.81 25.99 35.54 24.69 33.85 24.17
  C 29.93 22.99 27.30 29.94 26.48 32.61
  Q 25.94 34.38 25.95 32.53
  L 25.99 25.76
  Q 26.00 24.74 25.02 24.49
  L 23.48 24.08
  Q 22.26 23.77 22.25 25.03
  L 22.18 41.27
  A 2.01 2.00 6.2 0 0 23.77 43.24
  L 24.61 43.42
  Q 25.97 43.71 26.19 42.34
  C 26.96 37.56 28.70 31.36 32.02 27.73
  Q 32.65 27.04 32.60 27.97
  C 32.40 31.50 31.39 39.31 33.31 42.22
  C 36.63 47.28 42.94 34.89 44.24 32.83
  Q 44.54 32.36 44.99 32.69
  C 46.88 34.03 50.14 37.49 48.23 39.86
  Q 47.05 41.33 44.44 39.34
  Q 43.07 38.30 42.25 39.80
  L 41.78 40.68
  Q 41.05 42.02 42.48 42.53
  Q 51.67 45.83 55.42 37.04
  Q 55.80 36.17 55.93 37.11
  C 56.30 39.79 57.79 44.03 61.26 43.31
  Q 63.99 42.75 65.19 39.51
  Q 65.58 38.46 66.03 39.49
  C 68.25 44.64 72.97 44.45 76.15 40.27
  Q 76.52 39.80 76.70 40.37
  C 77.86 44.06 82.39 44.53 84.21 40.98
  Q 84.58 40.25 85.05 40.92
  C 87.46 44.33 90.91 44.16 93.77 40.98
  A 0.34 0.34 0.0 0 1 94.36 41.25
  L 94.23 42.28
  A 0.59 0.58 -17.8 0 1 94.05 42.62
  Q 90.70 45.58 87.91 48.65
  C 84.23 52.71 86.74 58.86 92.58 57.31
  C 98.63 55.69 98.25 46.77 97.97 42.06
  Q 97.93 41.43 98.34 40.96
  Q 102.81 35.78 104.93 29.54
  Q 105.26 28.56 106.29 28.53
  L 107.79 28.49
  Q 108.68 28.47 108.44 29.32
  Q 107.00 34.35 108.00 38.80
  C 108.94 43.03 113.63 45.65 116.45 41.01
  Q 116.72 40.57 117.04 40.98
  C 120.04 44.83 124.00 43.77 126.28 40.17
  Q 126.69 39.52 126.96 40.25
  C 127.98 42.99 130.51 44.29 132.89 42.69
  C 133.48 42.30 133.83 41.65 134.26 41.11
  Q 134.68 40.57 134.73 41.25
  L 134.83 42.55
  A 0.67 0.66 9.6 0 0 135.23 43.11
  Q 136.89 43.80 138.69 43.20
  Q 139.27 43.01 139.28 42.40
  C 139.36 38.05 139.75 33.70 141.79 29.86
  Q 142.68 28.19 142.64 30.08
  Q 142.52 35.37 143.68 39.86
  Q 144.19 41.80 146.38 42.06
  A 1.20 1.19 5.2 0 0 147.72 40.95
  Q 148.07 35.17 150.19 29.70
  Q 150.73 28.30 150.75 29.80
  C 150.81 33.83 150.38 38.00 152.35 41.51
  C 153.62 43.76 156.83 44.40 158.48 42.11
  Q 160.11 39.84 159.99 36.99
  Q 159.98 36.59 159.63 36.40
  Q 159.37 36.27 159.06 36.41
  A 0.64 0.62 85.8 0 0 158.73 36.80
  L 157.79 39.97
  A 1.18 1.17 -54.5 0 1 155.71 40.32
  C 153.71 37.54 154.43 30.04 154.62 26.78
  A 1.42 1.41 -65.4 0 0 154.22 25.70
  Q 152.95 24.41 151.07 24.01
  Q 150.02 23.80 149.60 24.77
  Q 147.75 29.04 146.98 32.76
  Q 146.35 35.89 146.16 32.71
  Q 145.99 29.74 145.99 27.04
  C 146.00 24.56 142.19 22.46 140.92 25.57
  Q 139.94 27.97 139.09 30.55
  Q 138.52 32.30 138.52 30.46
  L 138.54 25.37
  Q 138.54 24.67 137.86 24.51
  L 135.50 23.97
  Q 134.78 23.80 134.75 24.54
  Q 134.52 30.28 134.48 35.82
  Q 134.46 38.78 132.34 40.73
  A 1.10 1.09 49.1 0 1 130.74 40.61
  Q 130.07 39.77 130.00 38.68
  Q 129.66 32.67 130.08 26.01
  A 1.17 1.16 -79.6 0 0 129.26 24.82
  L 127.50 24.28
  Q 126.80 24.06 126.31 24.61
  Q 126.17 24.75 126.13 24.96
  Q 125.92 26.00 125.21 25.21
  Q 123.06 22.83 120.06 24.27
  C 115.95 26.25 115.30 33.58 115.89 37.41
  Q 116.21 39.49 114.46 40.67
  A 1.33 1.32 -32.2 0 1 112.58 40.25
  C 110.68 37.03 111.69 31.76 112.68 28.19
  Q 113.19 26.33 111.44 25.72
  C 110.13 25.26 108.10 26.02 106.73 26.20
  Q 105.95 26.31 106.02 25.53
  C 106.45 20.86 98.81 24.16 102.19 28.29
  Q 102.53 28.70 102.38 29.22
  Q 101.11 33.73 98.51 37.61
  Q 97.96 38.43 97.96 37.44
  Z"
/>
<path fill="#000000" d="
  M 13.51 17.07
  C 9.79 20.70 9.11 26.82 11.53 30.82
  A 0.41 0.41 0.0 0 1 11.09 31.44
  C 7.24 30.62 5.68 26.72 6.85 23.15
  C 7.99 19.65 13.29 11.40 17.91 14.96
  Q 18.47 15.39 18.48 16.10
  Q 18.58 27.98 18.39 38.73
  Q 18.31 43.93 14.59 46.48
  Q 12.59 47.85 13.35 45.54
  Q 14.05 43.45 14.10 41.40
  Q 14.36 31.02 14.23 17.37
  Q 14.22 16.37 13.51 17.07
  Z"
/>
<path fill="#000000" d="
  M 98.51 37.61
  Q 101.11 33.73 102.38 29.22
  Q 102.53 28.70 102.19 28.29
  C 98.81 24.16 106.45 20.86 106.02 25.53
  Q 105.95 26.31 106.73 26.20
  C 108.10 26.02 110.13 25.26 111.44 25.72
  Q 113.19 26.33 112.68 28.19
  C 111.69 31.76 110.68 37.03 112.58 40.25
  A 1.33 1.32 -32.2 0 0 114.46 40.67
  Q 116.21 39.49 115.89 37.41
  C 115.30 33.58 115.95 26.25 120.06 24.27
  Q 123.06 22.83 125.21 25.21
  Q 125.92 26.00 126.13 24.96
  Q 126.17 24.75 126.31 24.61
  Q 126.80 24.06 127.50 24.28
  L 129.26 24.82
  A 1.17 1.16 -79.6 0 1 130.08 26.01
  Q 129.66 32.67 130.00 38.68
  Q 130.07 39.77 130.74 40.61
  A 1.10 1.09 49.1 0 0 132.34 40.73
  Q 134.46 38.78 134.48 35.82
  Q 134.52 30.28 134.75 24.54
  Q 134.78 23.80 135.50 23.97
  L 137.86 24.51
  Q 138.54 24.67 138.54 25.37
  L 138.52 30.46
  Q 138.52 32.30 139.09 30.55
  Q 139.94 27.97 140.92 25.57
  C 142.19 22.46 146.00 24.56 145.99 27.04
  Q 145.99 29.74 146.16 32.71
  Q 146.35 35.89 146.98 32.76
  Q 147.75 29.04 149.60 24.77
  Q 150.02 23.80 151.07 24.01
  Q 152.95 24.41 154.22 25.70
  A 1.42 1.41 -65.4 0 1 154.62 26.78
  C 154.43 30.04 153.71 37.54 155.71 40.32
  A 1.18 1.17 -54.5 0 0 157.79 39.97
  L 158.73 36.80
  A 0.64 0.62 85.8 0 1 159.06 36.41
  Q 159.37 36.27 159.63 36.40
  Q 159.98 36.59 159.99 36.99
  Q 160.11 39.84 158.48 42.11
  C 156.83 44.40 153.62 43.76 152.35 41.51
  C 150.38 38.00 150.81 33.83 150.75 29.80
  Q 150.73 28.30 150.19 29.70
  Q 148.07 35.17 147.72 40.95
  A 1.20 1.19 5.2 0 1 146.38 42.06
  Q 144.19 41.80 143.68 39.86
  Q 142.52 35.37 142.64 30.08
  Q 142.68 28.19 141.79 29.86
  C 139.75 33.70 139.36 38.05 139.28 42.40
  Q 139.27 43.01 138.69 43.20
  Q 136.89 43.80 135.23 43.11
  A 0.67 0.66 9.6 0 1 134.83 42.55
  L 134.73 41.25
  Q 134.68 40.57 134.26 41.11
  C 133.83 41.65 133.48 42.30 132.89 42.69
  C 130.51 44.29 127.98 42.99 126.96 40.25
  Q 126.69 39.52 126.28 40.17
  C 124.00 43.77 120.04 44.83 117.04 40.98
  Q 116.72 40.57 116.45 41.01
  C 113.63 45.65 108.94 43.03 108.00 38.80
  Q 107.00 34.35 108.44 29.32
  Q 108.68 28.47 107.79 28.49
  L 106.29 28.53
  Q 105.26 28.56 104.93 29.54
  Q 102.81 35.78 98.34 40.96
  Q 97.93 41.43 97.97 42.06
  C 98.25 46.77 98.63 55.69 92.58 57.31
  C 86.74 58.86 84.23 52.71 87.91 48.65
  Q 90.70 45.58 94.05 42.62
  A 0.59 0.58 -17.8 0 0 94.23 42.28
  L 94.36 41.25
  A 0.34 0.34 0.0 0 0 93.77 40.98
  C 90.91 44.16 87.46 44.33 85.05 40.92
  Q 84.58 40.25 84.21 40.98
  C 82.39 44.53 77.86 44.06 76.70 40.37
  Q 76.52 39.80 76.15 40.27
  C 72.97 44.45 68.25 44.64 66.03 39.49
  Q 65.58 38.46 65.19 39.51
  Q 63.99 42.75 61.26 43.31
  C 57.79 44.03 56.30 39.79 55.93 37.11
  Q 55.80 36.17 55.42 37.04
  Q 51.67 45.83 42.48 42.53
  Q 41.05 42.02 41.78 40.68
  L 42.25 39.80
  Q 43.07 38.30 44.44 39.34
  Q 47.05 41.33 48.23 39.86
  C 50.14 37.49 46.88 34.03 44.99 32.69
  Q 44.54 32.36 44.24 32.83
  C 42.94 34.89 36.63 47.28 33.31 42.22
  C 31.39 39.31 32.40 31.50 32.60 27.97
  Q 32.65 27.04 32.02 27.73
  C 28.70 31.36 26.96 37.56 26.19 42.34
  Q 25.97 43.71 24.61 43.42
  L 23.77 43.24
  A 2.01 2.00 6.2 0 1 22.18 41.27
  L 22.25 25.03
  Q 22.26 23.77 23.48 24.08
  L 25.02 24.49
  Q 26.00 24.74 25.99 25.76
  L 25.95 32.53
  Q 25.94 34.38 26.48 32.61
  C 27.30 29.94 29.93 22.99 33.85 24.17
  C 35.54 24.69 36.81 25.99 36.66 27.83
  Q 36.22 33.61 36.57 38.83
  Q 36.62 39.61 37.38 39.43
  Q 37.99 39.29 38.39 38.70
  Q 40.78 35.18 42.83 31.31
  Q 43.10 30.81 42.83 30.30
  L 42.29 29.32
  A 2.10 2.10 0.0 0 1 42.03 28.10
  Q 42.37 24.48 46.12 23.72
  Q 47.21 23.49 47.83 24.26
  C 49.01 25.72 47.67 28.02 46.57 29.17
  Q 46.14 29.61 46.63 29.98
  C 49.07 31.84 52.80 33.82 52.58 37.32
  Q 52.50 38.71 53.38 37.64
  C 56.76 33.57 55.76 28.65 55.81 23.83
  Q 55.82 23.28 55.27 23.24
  L 51.73 23.00
  Q 50.73 22.93 51.00 21.97
  L 51.33 20.78
  A 1.15 1.15 0.0 0 1 52.53 19.95
  L 55.36 20.18
  Q 55.95 20.22 55.99 19.64
  L 56.29 14.98
  Q 56.38 13.50 57.79 13.96
  L 59.57 14.55
  Q 60.73 14.93 60.66 16.16
  L 60.47 19.66
  Q 60.44 20.13 60.92 20.18
  L 65.77 20.68
  Q 66.53 20.76 66.39 21.52
  L 66.20 22.48
  Q 66.05 23.25 65.27 23.25
  L 61.01 23.25
  Q 60.46 23.25 60.42 23.80
  Q 59.86 31.67 60.25 37.62
  Q 60.33 38.81 60.94 39.84
  A 1.22 1.21 -37.3 0 0 62.82 40.09
  C 64.44 38.54 65.41 36.40 65.49 34.11
  C 65.60 30.80 66.35 26.84 69.06 24.83
  Q 72.40 22.36 75.19 25.35
  Q 75.68 25.87 75.93 25.21
  L 76.08 24.79
  A 0.95 0.95 0.0 0 1 77.27 24.23
  L 79.26 24.89
  Q 79.85 25.09 79.83 25.71
  Q 79.66 31.43 79.74 37.43
  Q 79.76 39.04 80.45 40.42
  A 1.10 1.09 -17.1 0 0 81.57 41.01
  C 83.29 40.77 84.01 38.74 83.83 37.22
  C 83.40 33.41 84.17 25.40 88.76 24.01
  Q 91.57 23.16 93.42 25.29
  Q 94.01 25.95 94.27 25.11
  Q 94.32 24.93 94.28 24.74
  A 0.48 0.48 0.0 0 1 94.86 24.16
  L 97.38 24.79
  Q 98.04 24.95 98.03 25.63
  L 97.96 37.44
  Q 97.96 38.43 98.51 37.61
  Z
  M 72.1105 41.0206
  A 7.23 3.16 94.2 0 0 75.7915 34.0414
  A 7.23 3.16 94.2 0 0 73.1695 26.5994
  A 7.23 3.16 94.2 0 0 69.4885 33.5786
  A 7.23 3.16 94.2 0 0 72.1105 41.0206
  Z
  M 90.2531 41.0291
  A 7.22 3.14 95.3 0 0 94.0466 34.1300
  A 7.22 3.14 95.3 0 0 91.5869 26.6509
  A 7.22 3.14 95.3 0 0 87.7934 33.5500
  A 7.22 3.14 95.3 0 0 90.2531 41.0291
  Z
  M 122.2905 41.0306
  A 7.23 3.15 94.2 0 0 125.9615 34.0507
  A 7.23 3.15 94.2 0 0 123.3495 26.6094
  A 7.23 3.15 94.2 0 0 119.6785 33.5893
  A 7.23 3.15 94.2 0 0 122.2905 41.0306
  Z
  M 93.99 45.76
  C 91.99 47.67 87.58 52.29 89.70 55.14
  A 1.28 1.27 76.7 0 0 90.49 55.63
  C 94.86 56.39 94.64 48.57 94.50 45.97
  Q 94.46 45.31 93.99 45.76
  Z"
/>
<ellipse fill="#ffffff" cx="0.00" cy="0.00" transform="translate(72.64,33.81) rotate(94.2)" rx="7.23" ry="3.16"/>
<ellipse fill="#ffffff" cx="0.00" cy="0.00" transform="translate(90.92,33.84) rotate(95.3)" rx="7.22" ry="3.14"/>
<ellipse fill="#ffffff" cx="0.00" cy="0.00" transform="translate(122.82,33.82) rotate(94.2)" rx="7.23" ry="3.15"/>
<path fill="#ffffff" d="
  M 89.70 55.14
  C 87.58 52.29 91.99 47.67 93.99 45.76
  Q 94.46 45.31 94.50 45.97
  C 94.64 48.57 94.86 56.39 90.49 55.63
  A 1.28 1.27 76.7 0 1 89.70 55.14
  Z"
/>
</svg>
